<svg id="Layer_1" data-name="Layer 1" xmlns="http://www.w3.org/2000/svg" viewBox="0 0 232 120"><defs><style>.cls-1{fill:#fff;stroke:#424242;stroke-width:4px;}.cls-1,.cls-2,.cls-3{stroke-miterlimit:10;}.cls-2{fill:none;stroke-width:3px;}.cls-2,.cls-3{stroke:#ffb300;}.cls-3{font-size:34px;fill:#ffb300;stroke-width:0.75px;font-family:OpenSans-Regular, Open Sans;}</style></defs><title>freeDelivery</title><path class="cls-1" d="M222,57.74v28.5a7.36,7.36,0,0,1-7.43,7.28H61.91a7.36,7.36,0,0,1-7.43-7.28v-64A7.36,7.36,0,0,1,61.91,15H187.7a7.42,7.42,0,0,1,7.06,5l5.18,15.37a7.23,7.23,0,0,0,2.4,3.39l16.89,13.32A7.23,7.23,0,0,1,222,57.74Z"/><circle class="cls-1" cx="93.51" cy="96.66" r="17.5"/><circle class="cls-1" cx="179.84" cy="96.66" r="17.5"/><rect class="cls-1" x="20" y="64.15" width="25" height="1" rx="0.5" ry="0.5"/><rect class="cls-1" x="15" y="38.26" width="30" height="1" rx="0.5" ry="0.5"/><rect class="cls-1" x="10" y="51.46" width="35" height="1" rx="0.5" ry="0.5"/><ellipse class="cls-2" cx="116.11" cy="49.52" rx="9.97" ry="14.63"/><text class="cls-3" transform="translate(133.16 64.15)">zł</text></svg>